<?xml version="1.0" encoding="utf-8"?>
<!-- Generator: Adobe Illustrator 19.2.1, SVG Export Plug-In . SVG Version: 6.00 Build 0)  -->
<svg version="1.1" id="Layer_1" xmlns="http://www.w3.org/2000/svg" xmlns:xlink="http://www.w3.org/1999/xlink" x="0px" y="0px"
	 viewBox="0 0 200 200" style="enable-background:new 0 0 200 200;" xml:space="preserve">
<style type="text/css">
	.st0{fill:#FFFFFF;}
</style>
<g>
	<path class="st0" d="M100.9,187.7c-47.3,0-85.8-38.5-85.8-85.8c0-47.3,38.5-85.8,85.8-85.8c47.3,0,85.8,38.5,85.8,85.8
		C186.7,149.2,148.2,187.7,100.9,187.7z M100.9,21.5c-44.3,0-80.4,36.1-80.4,80.4s36.1,80.4,80.4,80.4s80.4-36.1,80.4-80.4
		S145.2,21.5,100.9,21.5z"/>
</g>
<g>
	<path class="st0" d="M144.8,105.9c0-2.8-1.3-5.5-3.3-7.3c1.4-1.9,2-4.2,1.8-6.6c-0.5-4.9-4.9-8.9-10.1-8.9H118l0.9-7.3
		c0.2-2.2,0.2-4.1-0.2-6c-1.8-7.6-8.6-13-16.4-13c-1.8,0-3.5,0.7-4.8,2s-2,2.9-2,4.7v9.6c0,4.2-1.2,8.2-3.4,11.8L88,91.6
		c-0.6,0.9-1.4,1.6-2.3,2.1c-0.8-2.6-3.2-4.5-6-4.5H66.1c-3.5,0-6.3,2.8-6.3,6.3v39.5c0,3.5,2.8,6.3,6.3,6.3h13.7
		c3.5,0,6.3-2.8,6.3-6.3v-0.9c3,2.7,7,4.3,11.4,4.3h29.8c2.7,0,5.4-1.2,7.3-3c1.9-1.9,2.8-4.3,2.7-6.9c0-0.9-0.1-1.8-0.5-2.7
		c3.2-1.6,5.3-4.9,5.3-8.7c0-1.3-0.2-2.6-0.7-3.8C143.5,111.4,144.8,108.7,144.8,105.9z M80.2,135c0,0.2-0.2,0.5-0.5,0.5H66.1
		c-0.2,0-0.5-0.2-0.5-0.5V95.4c0-0.2,0.2-0.5,0.5-0.5h13.7c0.2,0,0.5,0.2,0.5,0.5V135H80.2z M136.7,109.4c-0.9,0.5-1.6,1.3-1.9,2.3
		s0,2.1,0.7,2.9c0.6,0.7,0.8,1.5,0.8,2.3c0,1.9-1.4,3.5-3.3,3.9c-1.2,0.2-2.2,0.9-2.7,2.1c-0.5,1.2-0.4,2.3,0.4,3.4
		c0.5,0.6,0.7,1.4,0.7,2.2c0,0.9-0.4,2-1.1,2.7c-0.8,0.8-2,1.3-3.2,1.3H97.5c-6.2,0-11.4-5-11.4-11.4V99.6c2.9-0.7,5.4-2.5,7-5
		l4.1-6.6c2.8-4.5,4.3-9.6,4.3-14.9v-9.6c0-0.2,0.1-0.5,0.2-0.6s0.4-0.2,0.6-0.2l0,0c5.2,0,9.5,3.5,10.7,8.4
		c0.2,1.1,0.4,2.3,0.1,3.9l-1.1,8.2c-0.2,1.4,0.2,2.8,1.2,4c0.9,1.1,2.3,1.8,3.8,1.8h16.2c2,0,4,1.6,4.2,3.5
		c0.1,1.4-0.6,2.8-1.8,3.6c-1.1,0.7-1.6,2-1.5,3.3c0.1,1.3,0.9,2.3,2.2,2.8c1.5,0.6,2.5,2,2.5,3.6
		C139,107.4,138.2,108.7,136.7,109.4z"/>
</g>
</svg>
