<?xml version="1.0" encoding="utf-8"?>
<!-- Generator: Adobe Illustrator 19.2.1, SVG Export Plug-In . SVG Version: 6.00 Build 0)  -->
<svg version="1.1" id="Layer_1" xmlns="http://www.w3.org/2000/svg" xmlns:xlink="http://www.w3.org/1999/xlink" x="0px" y="0px"
	 viewBox="0 0 200 200" style="enable-background:new 0 0 200 200;" xml:space="preserve">
<style type="text/css">
	.st0{fill:#FFFFFF;}
</style>
<g>
	<g>
		<path class="st0" d="M118.7,61.9H82.8c-11.1,0-20.2,9-20.2,20.2V118c0,11.1,9,20.2,20.2,20.2h35.9c11.1,0,20.2-9,20.2-20.2V82.1
			C138.9,71,129.8,61.9,118.7,61.9z M134.4,118c0,8.7-7,15.7-15.7,15.7H82.8c-8.7,0-15.7-7-15.7-15.7V82.1c0-8.7,7-15.7,15.7-15.7
			h35.9c8.7,0,15.7,7,15.7,15.7V118z"/>
	</g>
	<g>
		<path class="st0" d="M100.8,82.1c-9.9,0-17.9,8-17.9,17.9s8,17.9,17.9,17.9s17.9-8,17.9-17.9S110.7,82.1,100.8,82.1z M100.8,113.5
			c-7.4,0-13.4-6-13.4-13.4s6-13.4,13.4-13.4s13.4,6,13.4,13.4S108.2,113.5,100.8,113.5z"/>
	</g>
	<g>
		<path class="st0" d="M120.9,75.4c-2.5,0-4.5,2-4.5,4.5s2,4.5,4.5,4.5c2.5,0,4.5-2,4.5-4.5S123.4,75.4,120.9,75.4z M120.9,79.9"/>
	</g>
</g>
<g>
	<path class="st0" d="M100.9,187.7c-47.3,0-85.8-38.5-85.8-85.8c0-47.3,38.5-85.8,85.8-85.8c47.3,0,85.8,38.5,85.8,85.8
		C186.7,149.2,148.2,187.7,100.9,187.7z M100.9,21.5c-44.3,0-80.4,36.1-80.4,80.4s36.1,80.4,80.4,80.4s80.4-36.1,80.4-80.4
		S145.2,21.5,100.9,21.5z"/>
</g>
</svg>
